<?xml version="1.0" encoding="UTF-8" standalone="no"?>
<!DOCTYPE svg PUBLIC "-//W3C//DTD SVG 1.1//EN"
 "http://www.w3.org/Graphics/SVG/1.1/DTD/svg11.dtd">
<!-- Generated by graphviz version 2.30.1 (20150306.0020)
 -->
<!-- Title: test Pages: 1 -->
<svg width="493pt" height="332pt"
 viewBox="0.00 0.00 493.00 332.00" xmlns="http://www.w3.org/2000/svg" xmlns:xlink="http://www.w3.org/1999/xlink">
<g id="graph0" class="graph" transform="scale(1 1) rotate(0) translate(4 328)">
<title>test</title>
<polygon fill="white" stroke="white" points="-4,5 -4,-328 490,-328 490,5 -4,5"/>
<!-- node1 -->
<g id="node1" class="node"><title>node1</title>
<ellipse fill="none" stroke="black" cx="244" cy="-297" rx="39.9593" ry="26.7407"/>
<text text-anchor="middle" x="244" y="-300.8" font-family="Times,serif" font-size="14.00">2</text>
<text text-anchor="middle" x="244" y="-285.8" font-family="Times,serif" font-size="14.00">w(2)=1</text>
</g>
<!-- node7 -->
<g id="node7" class="node"><title>node7</title>
<ellipse fill="none" stroke="black" cx="210" cy="-27" rx="44.8843" ry="26.7407"/>
<text text-anchor="middle" x="210" y="-30.8" font-family="Times,serif" font-size="14.00">10</text>
<text text-anchor="middle" x="210" y="-15.8" font-family="Times,serif" font-size="14.00">w(10)=1</text>
</g>
<!-- node1&#45;&#45;node7 -->
<g id="edge1" class="edge"><title>node1&#45;&#45;node7</title>
<path fill="none" stroke="black" d="M226.292,-272.579C205.904,-244.005 173.604,-193.38 161,-144 155.065,-120.746 153.123,-112.671 161,-90 166.178,-75.0964 176.592,-61.0713 186.493,-50.1429"/>
</g>
<!-- node2 -->
<g id="node2" class="node"><title>node2</title>
<ellipse fill="none" stroke="black" cx="40" cy="-207" rx="39.9593" ry="26.7407"/>
<text text-anchor="middle" x="40" y="-210.8" font-family="Times,serif" font-size="14.00">3</text>
<text text-anchor="middle" x="40" y="-195.8" font-family="Times,serif" font-size="14.00">w(3)=1</text>
</g>
<!-- node1&#45;&#45;node2 -->
<g id="edge2" class="edge"><title>node1&#45;&#45;node2</title>
<path fill="none" stroke="black" d="M210.77,-281.665C172.835,-265.301 111.145,-238.69 73.2159,-222.328"/>
</g>
<!-- node3 -->
<g id="node3" class="node"><title>node3</title>
<ellipse fill="none" stroke="black" cx="278" cy="-207" rx="39.9593" ry="26.7407"/>
<text text-anchor="middle" x="278" y="-210.8" font-family="Times,serif" font-size="14.00">4</text>
<text text-anchor="middle" x="278" y="-195.8" font-family="Times,serif" font-size="14.00">w(4)=1</text>
</g>
<!-- node1&#45;&#45;node3 -->
<g id="edge3" class="edge"><title>node1&#45;&#45;node3</title>
<path fill="none" stroke="black" d="M253.834,-270.547C258.384,-258.77 263.773,-244.824 268.305,-233.092"/>
</g>
<!-- node4 -->
<g id="node4" class="node"><title>node4</title>
<ellipse fill="none" stroke="black" cx="210" cy="-117" rx="39.9593" ry="26.7407"/>
<text text-anchor="middle" x="210" y="-120.8" font-family="Times,serif" font-size="14.00">5</text>
<text text-anchor="middle" x="210" y="-105.8" font-family="Times,serif" font-size="14.00">w(5)=1</text>
</g>
<!-- node1&#45;&#45;node4 -->
<g id="edge4" class="edge"><title>node1&#45;&#45;node4</title>
<path fill="none" stroke="black" d="M237.364,-270.456C234.585,-259.304 231.441,-246.048 229,-234 222.761,-203.198 217.152,-167.477 213.674,-143.902"/>
</g>
<!-- node5 -->
<g id="node5" class="node"><title>node5</title>
<ellipse fill="none" stroke="black" cx="445" cy="-117" rx="39.9593" ry="26.7407"/>
<text text-anchor="middle" x="445" y="-120.8" font-family="Times,serif" font-size="14.00">7</text>
<text text-anchor="middle" x="445" y="-105.8" font-family="Times,serif" font-size="14.00">w(7)=2</text>
</g>
<!-- node1&#45;&#45;node5 -->
<g id="edge5" class="edge"><title>node1&#45;&#45;node5</title>
<path fill="none" stroke="black" d="M283.351,-290.571C340.329,-281.813 441.371,-262.603 463,-234 482.914,-207.666 470.416,-168.209 458.553,-142.783"/>
</g>
<!-- node6 -->
<g id="node6" class="node"><title>node6</title>
<ellipse fill="none" stroke="black" cx="346" cy="-117" rx="39.9593" ry="26.7407"/>
<text text-anchor="middle" x="346" y="-120.8" font-family="Times,serif" font-size="14.00">8</text>
<text text-anchor="middle" x="346" y="-105.8" font-family="Times,serif" font-size="14.00">w(8)=2</text>
</g>
<!-- node1&#45;&#45;node6 -->
<g id="edge6" class="edge"><title>node1&#45;&#45;node6</title>
<path fill="none" stroke="black" d="M275.707,-280.251C293.649,-269.661 314.863,-253.985 327,-234 343.737,-206.441 347.052,-168.713 347.137,-143.867"/>
</g>
<!-- node2&#45;&#45;node7 -->
<g id="edge7" class="edge"><title>node2&#45;&#45;node7</title>
<path fill="none" stroke="black" d="M27.6466,-181.367C16.897,-156.062 5.78663,-116.703 25,-90 56.6545,-46.0066 121.006,-32.7862 164.819,-29.0575"/>
</g>
<!-- node3&#45;&#45;node7 -->
<g id="edge8" class="edge"><title>node3&#45;&#45;node7</title>
<path fill="none" stroke="black" d="M277.451,-180.06C276.097,-155.83 271.853,-119.126 259,-90 252.63,-75.5653 242.095,-61.5879 232.423,-50.5697"/>
</g>
<!-- node3&#45;&#45;node4 -->
<g id="edge9" class="edge"><title>node3&#45;&#45;node4</title>
<path fill="none" stroke="black" d="M260.134,-182.879C250.218,-170.046 237.918,-154.129 227.983,-141.272"/>
</g>
<!-- node3&#45;&#45;node5 -->
<g id="edge10" class="edge"><title>node3&#45;&#45;node5</title>
<path fill="none" stroke="black" d="M309.02,-189.654C339.016,-173.848 384.207,-150.035 414.146,-134.258"/>
</g>
<!-- node3&#45;&#45;node6 -->
<g id="edge11" class="edge"><title>node3&#45;&#45;node6</title>
<path fill="none" stroke="black" d="M295.866,-182.879C305.782,-170.046 318.082,-154.129 328.017,-141.272"/>
</g>
<!-- node4&#45;&#45;node7 -->
<g id="edge12" class="edge"><title>node4&#45;&#45;node7</title>
<path fill="none" stroke="black" d="M210,-90.0731C210,-78.7165 210,-65.4158 210,-54.0457"/>
</g>
<!-- node5&#45;&#45;node7 -->
<g id="edge15" class="edge"><title>node5&#45;&#45;node7</title>
<path fill="none" stroke="black" d="M414.69,-99.2791C408.276,-96.0136 401.484,-92.7526 395,-90 346.358,-69.3516 288.301,-50.8455 250.366,-39.5383"/>
</g>
<!-- node9 -->
<g id="node9" class="node"><title>node9</title>
<ellipse fill="none" stroke="black" cx="395" cy="-27" rx="44.8843" ry="26.7407"/>
<text text-anchor="middle" x="395" y="-30.8" font-family="Times,serif" font-size="14.00">11</text>
<text text-anchor="middle" x="395" y="-15.8" font-family="Times,serif" font-size="14.00">w(11)=5</text>
</g>
<!-- node5&#45;&#45;node9 -->
<g id="edge16" class="edge"><title>node5&#45;&#45;node9</title>
<path fill="none" stroke="black" d="M431.072,-91.4871C424.195,-79.3833 415.917,-64.8139 409.027,-52.6867"/>
</g>
<!-- node6&#45;&#45;node7 -->
<g id="edge17" class="edge"><title>node6&#45;&#45;node7</title>
<path fill="none" stroke="black" d="M317.821,-97.7663C295.102,-83.0661 263.228,-62.4414 240.03,-47.4311"/>
</g>
<!-- node6&#45;&#45;node9 -->
<g id="edge18" class="edge"><title>node6&#45;&#45;node9</title>
<path fill="none" stroke="black" d="M359.649,-91.4871C366.389,-79.3833 374.501,-64.8139 381.254,-52.6867"/>
</g>
<!-- node8 -->
<g id="node8" class="node"><title>node8</title>
<ellipse fill="none" stroke="black" cx="414" cy="-207" rx="39.9593" ry="26.7407"/>
<text text-anchor="middle" x="414" y="-210.8" font-family="Times,serif" font-size="14.00">6</text>
<text text-anchor="middle" x="414" y="-195.8" font-family="Times,serif" font-size="14.00">w(6)=6</text>
</g>
<!-- node8&#45;&#45;node5 -->
<g id="edge13" class="edge"><title>node8&#45;&#45;node5</title>
<path fill="none" stroke="black" d="M422.966,-180.547C427.079,-168.872 431.943,-155.064 436.054,-143.396"/>
</g>
<!-- node8&#45;&#45;node6 -->
<g id="edge14" class="edge"><title>node8&#45;&#45;node6</title>
<path fill="none" stroke="black" d="M396.134,-182.879C386.218,-170.046 373.918,-154.129 363.983,-141.272"/>
</g>
<!-- node10 -->
<g id="node10" class="node"><title>node10</title>
<ellipse fill="none" stroke="black" cx="74" cy="-117" rx="39.9593" ry="26.7407"/>
<text text-anchor="middle" x="74" y="-120.8" font-family="Times,serif" font-size="14.00">9</text>
<text text-anchor="middle" x="74" y="-105.8" font-family="Times,serif" font-size="14.00">w(9)=1</text>
</g>
<!-- node10&#45;&#45;node7 -->
<g id="edge19" class="edge"><title>node10&#45;&#45;node7</title>
<path fill="none" stroke="black" d="M102.179,-97.7663C124.898,-83.0661 156.772,-62.4414 179.97,-47.4311"/>
</g>
</g>
</svg>
