<?xml version="1.0" encoding="UTF-8" standalone="no"?>
<!DOCTYPE svg PUBLIC "-//W3C//DTD SVG 1.1//EN"
 "http://www.w3.org/Graphics/SVG/1.1/DTD/svg11.dtd">
<!-- Generated by graphviz version 2.30.1 (20150306.0020)
 -->
<!-- Title: test Pages: 1 -->
<svg width="117pt" height="548pt"
 viewBox="0.00 0.00 116.71 548.00" xmlns="http://www.w3.org/2000/svg" xmlns:xlink="http://www.w3.org/1999/xlink">
<g id="graph0" class="graph" transform="scale(1 1) rotate(0) translate(4 544)">
<title>test</title>
<polygon fill="white" stroke="white" points="-4,5 -4,-544 113.707,-544 113.707,5 -4,5"/>
<!-- node1 -->
<g id="node1" class="node"><title>node1</title>
<ellipse fill="none" stroke="black" cx="82" cy="-522" rx="18" ry="18"/>
<text text-anchor="middle" x="82" y="-518.3" font-family="Times,serif" font-size="14.00">1</text>
</g>
<!-- node2 -->
<g id="node2" class="node"><title>node2</title>
<ellipse fill="none" stroke="black" cx="18" cy="-450" rx="18" ry="18"/>
<text text-anchor="middle" x="18" y="-446.3" font-family="Times,serif" font-size="14.00">2</text>
</g>
<!-- node1&#45;&gt;node2 -->
<g id="edge1" class="edge"><title>node1&#45;&gt;node2</title>
<path fill="none" stroke="black" d="M70.2614,-508.161C60.8789,-497.899 47.5487,-483.319 36.6996,-471.453"/>
<polygon fill="black" stroke="black" points="38.995,-468.776 29.6642,-463.758 33.8288,-473.5 38.995,-468.776"/>
</g>
<!-- node3 -->
<g id="node3" class="node"><title>node3</title>
<ellipse fill="none" stroke="black" cx="74" cy="-234" rx="18" ry="18"/>
<text text-anchor="middle" x="74" y="-230.3" font-family="Times,serif" font-size="14.00">5</text>
</g>
<!-- node1&#45;&gt;node3 -->
<g id="edge2" class="edge"><title>node1&#45;&gt;node3</title>
<path fill="none" stroke="black" d="M86.8121,-504.628C97.3562,-466.212 120.088,-367.521 101,-288 98.5313,-277.715 93.7161,-267.177 88.8272,-258.233"/>
<polygon fill="black" stroke="black" points="91.8462,-256.462 83.8011,-249.569 85.7912,-259.975 91.8462,-256.462"/>
</g>
<!-- node2&#45;&gt;node2 -->
<g id="edge3" class="edge"><title>node2&#45;&gt;node2</title>
<path fill="none" stroke="black" d="M32.0417,-461.756C42.9126,-466.153 54,-462.234 54,-450 54,-441.589 48.7595,-437.108 41.9516,-436.558"/>
<polygon fill="black" stroke="black" points="41.3132,-433.116 32.0417,-438.244 42.4871,-440.017 41.3132,-433.116"/>
</g>
<!-- node4 -->
<g id="node4" class="node"><title>node4</title>
<ellipse fill="none" stroke="black" cx="28" cy="-378" rx="18" ry="18"/>
<text text-anchor="middle" x="28" y="-374.3" font-family="Times,serif" font-size="14.00">3</text>
</g>
<!-- node2&#45;&gt;node4 -->
<g id="edge4" class="edge"><title>node2&#45;&gt;node4</title>
<path fill="none" stroke="black" d="M20.4207,-432.055C21.5221,-424.346 22.8533,-415.027 24.0908,-406.364"/>
<polygon fill="black" stroke="black" points="27.5826,-406.67 25.5321,-396.275 20.653,-405.68 27.5826,-406.67"/>
</g>
<!-- node5 -->
<g id="node5" class="node"><title>node5</title>
<ellipse fill="none" stroke="black" cx="74" cy="-306" rx="18" ry="18"/>
<text text-anchor="middle" x="74" y="-302.3" font-family="Times,serif" font-size="14.00">4</text>
</g>
<!-- node3&#45;&gt;node5 -->
<g id="edge8" class="edge"><title>node3&#45;&gt;node5</title>
<path fill="none" stroke="black" d="M79.7909,-251.147C80.7077,-259.262 80.9672,-269.303 80.5695,-278.508"/>
<polygon fill="black" stroke="black" points="77.0581,-278.531 79.8008,-288.765 84.0385,-279.054 77.0581,-278.531"/>
</g>
<!-- node6 -->
<g id="node6" class="node"><title>node6</title>
<ellipse fill="none" stroke="black" cx="51" cy="-162" rx="18" ry="18"/>
<text text-anchor="middle" x="51" y="-158.3" font-family="Times,serif" font-size="14.00">6</text>
</g>
<!-- node3&#45;&gt;node6 -->
<g id="edge9" class="edge"><title>node3&#45;&gt;node6</title>
<path fill="none" stroke="black" d="M68.6655,-216.765C65.9758,-208.578 62.6472,-198.448 59.607,-189.195"/>
<polygon fill="black" stroke="black" points="62.912,-188.041 56.4653,-179.633 56.2617,-190.226 62.912,-188.041"/>
</g>
<!-- node4&#45;&gt;node5 -->
<g id="edge5" class="edge"><title>node4&#45;&gt;node5</title>
<path fill="none" stroke="black" d="M37.5312,-362.496C43.699,-353.11 51.8619,-340.688 58.901,-329.977"/>
<polygon fill="black" stroke="black" points="61.9141,-331.765 64.481,-321.485 56.0642,-327.92 61.9141,-331.765"/>
</g>
<!-- node5&#45;&gt;node1 -->
<g id="edge6" class="edge"><title>node5&#45;&gt;node1</title>
<path fill="none" stroke="black" d="M74.6442,-324.232C76.0308,-361.324 79.3077,-448.981 80.9799,-493.712"/>
<polygon fill="black" stroke="black" points="77.4876,-493.987 81.3588,-503.849 84.4827,-493.725 77.4876,-493.987"/>
</g>
<!-- node5&#45;&gt;node3 -->
<g id="edge7" class="edge"><title>node5&#45;&gt;node3</title>
<path fill="none" stroke="black" d="M68.1992,-288.765C67.2872,-280.637 67.0324,-270.592 67.4348,-261.392"/>
<polygon fill="black" stroke="black" points="70.9454,-261.383 68.2091,-251.147 63.9653,-260.855 70.9454,-261.383"/>
</g>
<!-- node6&#45;&gt;node4 -->
<g id="edge10" class="edge"><title>node6&#45;&gt;node4</title>
<path fill="none" stroke="black" d="M49.1798,-179.935C45.2127,-216.847 35.7571,-304.825 30.9357,-349.685"/>
<polygon fill="black" stroke="black" points="27.432,-349.532 29.8433,-359.849 34.392,-350.281 27.432,-349.532"/>
</g>
<!-- node7 -->
<g id="node7" class="node"><title>node7</title>
<ellipse fill="none" stroke="black" cx="19" cy="-90" rx="18" ry="18"/>
<text text-anchor="middle" x="19" y="-86.3" font-family="Times,serif" font-size="14.00">7</text>
</g>
<!-- node6&#45;&gt;node7 -->
<g id="edge11" class="edge"><title>node6&#45;&gt;node7</title>
<path fill="none" stroke="black" d="M43.7387,-145.116C39.811,-136.524 34.8697,-125.715 30.438,-116.021"/>
<polygon fill="black" stroke="black" points="33.5734,-114.461 26.2326,-106.821 27.2071,-117.371 33.5734,-114.461"/>
</g>
<!-- node7&#45;&gt;node7 -->
<g id="edge12" class="edge"><title>node7&#45;&gt;node7</title>
<path fill="none" stroke="black" d="M33.0417,-101.756C43.9126,-106.153 55,-102.234 55,-90 55,-81.5889 49.7595,-77.1081 42.9516,-76.5578"/>
<polygon fill="black" stroke="black" points="42.3132,-73.116 33.0417,-78.2435 43.4871,-80.0169 42.3132,-73.116"/>
</g>
<!-- node8 -->
<g id="node8" class="node"><title>node8</title>
<ellipse fill="none" stroke="black" cx="51" cy="-18" rx="18" ry="18"/>
<text text-anchor="middle" x="51" y="-14.3" font-family="Times,serif" font-size="14.00">8</text>
</g>
<!-- node7&#45;&gt;node8 -->
<g id="edge13" class="edge"><title>node7&#45;&gt;node8</title>
<path fill="none" stroke="black" d="M26.2613,-73.1159C30.189,-64.524 35.1303,-53.715 39.562,-44.0207"/>
<polygon fill="black" stroke="black" points="42.7929,-45.3712 43.7674,-34.8212 36.4266,-42.4608 42.7929,-45.3712"/>
</g>
<!-- node8&#45;&gt;node6 -->
<g id="edge14" class="edge"><title>node8&#45;&gt;node6</title>
<path fill="none" stroke="black" d="M56.1393,-35.5195C59.0902,-45.8814 62.4996,-59.5845 64,-72 65.9196,-87.8844 65.9196,-92.1156 64,-108 62.9333,-116.827 60.9017,-126.304 58.756,-134.769"/>
<polygon fill="black" stroke="black" points="55.3616,-133.914 56.1393,-144.481 62.1205,-135.736 55.3616,-133.914"/>
</g>
<!-- node8&#45;&gt;node8 -->
<g id="edge15" class="edge"><title>node8&#45;&gt;node8</title>
<path fill="none" stroke="black" d="M65.0417,-29.7565C75.9126,-34.1532 87,-30.2344 87,-18 87,-9.58887 81.7595,-5.10813 74.9516,-4.55779"/>
<polygon fill="black" stroke="black" points="74.3132,-1.11604 65.0417,-6.24353 75.4871,-8.01691 74.3132,-1.11604"/>
</g>
</g>
</svg>
