<?xml version="1.0" encoding="UTF-8" standalone="no"?>
<!DOCTYPE svg PUBLIC "-//W3C//DTD SVG 1.1//EN"
 "http://www.w3.org/Graphics/SVG/1.1/DTD/svg11.dtd">
<!-- Generated by graphviz version 2.30.1 (20150306.0020)
 -->
<!-- Title: test Pages: 1 -->
<svg width="279pt" height="700pt"
 viewBox="0.00 0.00 279.00 700.00" xmlns="http://www.w3.org/2000/svg" xmlns:xlink="http://www.w3.org/1999/xlink">
<g id="graph0" class="graph" transform="scale(1 1) rotate(0) translate(4 696)">
<title>test</title>
<polygon fill="white" stroke="white" points="-4,5 -4,-696 276,-696 276,5 -4,5"/>
<!-- node1 -->
<g id="node1" class="node"><title>node1</title>
<ellipse fill="none" stroke="black" cx="46" cy="-674" rx="18" ry="18"/>
<text text-anchor="middle" x="46" y="-670.3" font-family="Times,serif" font-size="14.00">1</text>
</g>
<!-- node2 -->
<g id="node2" class="node"><title>node2</title>
<ellipse fill="none" stroke="black" cx="96" cy="-602" rx="18" ry="18"/>
<text text-anchor="middle" x="96" y="-598.3" font-family="Times,serif" font-size="14.00">2</text>
</g>
<!-- node1&#45;&gt;node2 -->
<g id="edge1" class="edge"><title>node1&#45;&gt;node2</title>
<path fill="none" stroke="black" d="M56.1182,-658.834C62.9632,-649.252 72.1483,-636.392 79.9784,-625.43"/>
<polygon fill="black" stroke="black" points="82.9325,-627.316 85.8968,-617.144 77.2363,-623.247 82.9325,-627.316"/>
</g>
<!-- node3 -->
<g id="node3" class="node"><title>node3</title>
<ellipse fill="none" stroke="black" cx="127" cy="-530" rx="18" ry="18"/>
<text text-anchor="middle" x="127" y="-526.3" font-family="Times,serif" font-size="14.00">3</text>
</g>
<!-- node2&#45;&gt;node3 -->
<g id="edge8" class="edge"><title>node2&#45;&gt;node3</title>
<path fill="none" stroke="black" d="M103.034,-585.116C106.839,-576.524 111.626,-565.715 115.919,-556.021"/>
<polygon fill="black" stroke="black" points="119.144,-557.382 119.993,-546.821 112.744,-554.547 119.144,-557.382"/>
</g>
<!-- node4 -->
<g id="node4" class="node"><title>node4</title>
<ellipse fill="none" stroke="black" cx="188" cy="-458" rx="18" ry="18"/>
<text text-anchor="middle" x="188" y="-454.3" font-family="Times,serif" font-size="14.00">4</text>
</g>
<!-- node2&#45;&gt;node4 -->
<g id="edge9" class="edge"><title>node2&#45;&gt;node4</title>
<path fill="none" stroke="black" d="M110.405,-590.922C123.35,-581.22 142.103,-565.478 154,-548 166.976,-528.938 175.902,-504.242 181.342,-485.703"/>
<polygon fill="black" stroke="black" points="184.774,-486.422 184.077,-475.85 178.029,-484.549 184.774,-486.422"/>
</g>
<!-- node5 -->
<g id="node5" class="node"><title>node5</title>
<ellipse fill="none" stroke="black" cx="19" cy="-384" rx="19.2474" ry="19.4965"/>
<text text-anchor="middle" x="19" y="-380.3" font-family="Times,serif" font-size="14.00">10</text>
</g>
<!-- node3&#45;&gt;node5 -->
<g id="edge10" class="edge"><title>node3&#45;&gt;node5</title>
<path fill="none" stroke="black" d="M116.645,-515.193C98.1923,-490.59 59.4327,-438.91 36.6881,-408.584"/>
<polygon fill="black" stroke="black" points="39.2557,-406.174 30.4556,-400.274 33.6557,-410.374 39.2557,-406.174"/>
</g>
<!-- node3&#45;&gt;node4 -->
<g id="edge11" class="edge"><title>node3&#45;&gt;node4</title>
<path fill="none" stroke="black" d="M138.474,-515.834C147.335,-505.665 159.763,-491.403 169.952,-479.71"/>
<polygon fill="black" stroke="black" points="172.647,-481.946 176.578,-472.107 167.369,-477.347 172.647,-481.946"/>
</g>
<!-- node7 -->
<g id="node7" class="node"><title>node7</title>
<ellipse fill="none" stroke="black" cx="227" cy="-384" rx="19.2474" ry="19.4965"/>
<text text-anchor="middle" x="227" y="-380.3" font-family="Times,serif" font-size="14.00">11</text>
</g>
<!-- node4&#45;&gt;node7 -->
<g id="edge12" class="edge"><title>node4&#45;&gt;node7</title>
<path fill="none" stroke="black" d="M196.271,-441.731C201.167,-432.692 207.496,-421.008 213.136,-410.595"/>
<polygon fill="black" stroke="black" points="216.376,-411.961 218.062,-401.501 210.221,-408.627 216.376,-411.961"/>
</g>
<!-- node6 -->
<g id="node6" class="node"><title>node6</title>
<ellipse fill="none" stroke="black" cx="161" cy="-310" rx="18" ry="18"/>
<text text-anchor="middle" x="161" y="-306.3" font-family="Times,serif" font-size="14.00">5</text>
</g>
<!-- node4&#45;&gt;node6 -->
<g id="edge13" class="edge"><title>node4&#45;&gt;node6</title>
<path fill="none" stroke="black" d="M184.903,-440.252C180.289,-415.303 171.562,-368.111 166.026,-338.177"/>
<polygon fill="black" stroke="black" points="169.404,-337.199 164.144,-328.002 162.521,-338.472 169.404,-337.199"/>
</g>
<!-- node5&#45;&gt;node1 -->
<g id="edge2" class="edge"><title>node5&#45;&gt;node1</title>
<path fill="none" stroke="black" d="M20.7381,-403.54C25.3607,-452.847 37.9758,-587.409 43.4305,-645.592"/>
<polygon fill="black" stroke="black" points="39.9737,-646.217 44.3919,-655.847 46.9431,-645.564 39.9737,-646.217"/>
</g>
<!-- node10 -->
<g id="node10" class="node"><title>node10</title>
<ellipse fill="none" stroke="black" cx="43" cy="-166" rx="18" ry="18"/>
<text text-anchor="middle" x="43" y="-162.3" font-family="Times,serif" font-size="14.00">9</text>
</g>
<!-- node5&#45;&gt;node10 -->
<g id="edge3" class="edge"><title>node5&#45;&gt;node10</title>
<path fill="none" stroke="black" d="M17.0664,-364.584C17.8553,-326.224 27.49,-237.648 35.4767,-193.298"/>
<polygon fill="black" stroke="black" points="38.9512,-193.765 37.4128,-183.282 32.0784,-192.436 38.9512,-193.765"/>
</g>
<!-- node6&#45;&gt;node3 -->
<g id="edge14" class="edge"><title>node6&#45;&gt;node3</title>
<path fill="none" stroke="black" d="M158.344,-328.027C152.472,-365.68 138.342,-456.276 131.234,-501.851"/>
<polygon fill="black" stroke="black" points="127.751,-501.474 129.668,-511.894 134.667,-502.553 127.751,-501.474"/>
</g>
<!-- node8 -->
<g id="node8" class="node"><title>node8</title>
<ellipse fill="none" stroke="black" cx="161" cy="-238" rx="18" ry="18"/>
<text text-anchor="middle" x="161" y="-234.3" font-family="Times,serif" font-size="14.00">6</text>
</g>
<!-- node6&#45;&gt;node8 -->
<g id="edge15" class="edge"><title>node6&#45;&gt;node8</title>
<path fill="none" stroke="black" d="M161,-291.697C161,-283.983 161,-274.712 161,-266.112"/>
<polygon fill="black" stroke="black" points="164.5,-266.104 161,-256.104 157.5,-266.104 164.5,-266.104"/>
</g>
<!-- node7&#45;&gt;node6 -->
<g id="edge4" class="edge"><title>node7&#45;&gt;node6</title>
<path fill="none" stroke="black" d="M214.275,-369.118C204.442,-358.391 190.688,-343.387 179.618,-331.311"/>
<polygon fill="black" stroke="black" points="182.137,-328.879 172.799,-323.872 176.977,-333.609 182.137,-328.879"/>
</g>
<!-- node11 -->
<g id="node11" class="node"><title>node11</title>
<ellipse fill="none" stroke="black" cx="207" cy="-94" rx="18" ry="18"/>
<text text-anchor="middle" x="207" y="-90.3" font-family="Times,serif" font-size="14.00">8</text>
</g>
<!-- node7&#45;&gt;node11 -->
<g id="edge5" class="edge"><title>node7&#45;&gt;node11</title>
<path fill="none" stroke="black" d="M225.688,-364.104C222.242,-314.491 212.928,-180.365 208.899,-122.352"/>
<polygon fill="black" stroke="black" points="212.374,-121.86 208.189,-112.127 205.391,-122.345 212.374,-121.86"/>
</g>
<!-- node9 -->
<g id="node9" class="node"><title>node9</title>
<ellipse fill="none" stroke="black" cx="253" cy="-166" rx="18" ry="18"/>
<text text-anchor="middle" x="253" y="-162.3" font-family="Times,serif" font-size="14.00">7</text>
</g>
<!-- node8&#45;&gt;node9 -->
<g id="edge16" class="edge"><title>node8&#45;&gt;node9</title>
<path fill="none" stroke="black" d="M174.973,-226.369C189.833,-215.062 213.546,-197.02 230.934,-183.789"/>
<polygon fill="black" stroke="black" points="233.057,-186.572 238.896,-177.732 228.818,-181.001 233.057,-186.572"/>
</g>
<!-- node8&#45;&gt;node10 -->
<g id="edge17" class="edge"><title>node8&#45;&gt;node10</title>
<path fill="none" stroke="black" d="M145.574,-227.849C125.499,-215.94 90.2179,-195.011 66.726,-181.075"/>
<polygon fill="black" stroke="black" points="68.4434,-178.024 58.0571,-175.932 64.872,-184.044 68.4434,-178.024"/>
</g>
<!-- node9&#45;&gt;node7 -->
<g id="edge18" class="edge"><title>node9&#45;&gt;node7</title>
<path fill="none" stroke="black" d="M250.934,-184.164C246.475,-221.206 235.911,-308.97 230.431,-354.497"/>
<polygon fill="black" stroke="black" points="226.937,-354.237 229.217,-364.584 233.887,-355.074 226.937,-354.237"/>
</g>
<!-- node9&#45;&gt;node11 -->
<g id="edge19" class="edge"><title>node9&#45;&gt;node11</title>
<path fill="none" stroke="black" d="M243.469,-150.496C237.301,-141.11 229.138,-128.688 222.099,-117.977"/>
<polygon fill="black" stroke="black" points="224.936,-115.92 216.519,-109.485 219.086,-119.765 224.936,-115.92"/>
</g>
<!-- node10&#45;&gt;node5 -->
<g id="edge22" class="edge"><title>node10&#45;&gt;node5</title>
<path fill="none" stroke="black" d="M44.9587,-184.018C44.3888,-221.195 34.8087,-309.955 26.7732,-355.303"/>
<polygon fill="black" stroke="black" points="23.2974,-354.847 24.8758,-365.324 30.1752,-356.15 23.2974,-354.847"/>
</g>
<!-- node10&#45;&gt;node2 -->
<g id="edge23" class="edge"><title>node10&#45;&gt;node2</title>
<path fill="none" stroke="black" d="M47.4346,-183.474C54.1182,-209.794 66,-263.048 66,-309 66,-459 66,-459 66,-459 66,-500.11 78.1857,-546.498 87.0244,-574.737"/>
<polygon fill="black" stroke="black" points="83.8128,-576.182 90.2157,-584.623 90.4743,-574.031 83.8128,-576.182"/>
</g>
<!-- node12 -->
<g id="node12" class="node"><title>node12</title>
<ellipse fill="none" stroke="black" cx="230" cy="-20" rx="19.2474" ry="19.4965"/>
<text text-anchor="middle" x="230" y="-16.3" font-family="Times,serif" font-size="14.00">12</text>
</g>
<!-- node11&#45;&gt;node12 -->
<g id="edge20" class="edge"><title>node11&#45;&gt;node12</title>
<path fill="none" stroke="black" d="M212.219,-76.6621C214.867,-68.3744 218.155,-58.0812 221.181,-48.6089"/>
<polygon fill="black" stroke="black" points="224.609,-49.377 224.318,-38.7862 217.941,-47.2469 224.609,-49.377"/>
</g>
<!-- node11&#45;&gt;node8 -->
<g id="edge21" class="edge"><title>node11&#45;&gt;node8</title>
<path fill="none" stroke="black" d="M201.643,-111.537C193.735,-135.948 178.861,-181.863 169.467,-210.863"/>
<polygon fill="black" stroke="black" points="166.029,-210.119 166.277,-220.711 172.688,-212.276 166.029,-210.119"/>
</g>
<!-- node12&#45;&gt;node12 -->
<g id="edge6" class="edge"><title>node12&#45;&gt;node12</title>
<path fill="none" stroke="black" d="M245.203,-32.3811C256.123,-36.4122 267,-32.2852 267,-20 267,-11.7459 262.09,-7.17452 255.555,-6.28584"/>
<polygon fill="black" stroke="black" points="254.674,-2.87039 245.203,-7.61887 255.568,-9.81307 254.674,-2.87039"/>
</g>
<!-- node12&#45;&gt;node9 -->
<g id="edge7" class="edge"><title>node12&#45;&gt;node9</title>
<path fill="none" stroke="black" d="M232.956,-39.5066C236.951,-64.5188 244.101,-109.285 248.694,-138.038"/>
<polygon fill="black" stroke="black" points="245.283,-138.877 250.317,-148.2 252.195,-137.773 245.283,-138.877"/>
</g>
</g>
</svg>
