<?xml version="1.0" encoding="UTF-8" standalone="no"?>
<!DOCTYPE svg PUBLIC "-//W3C//DTD SVG 1.1//EN"
 "http://www.w3.org/Graphics/SVG/1.1/DTD/svg11.dtd">
<!-- Generated by graphviz version 2.30.1 (20150306.0020)
 -->
<!-- Title: test Pages: 1 -->
<svg width="197pt" height="152pt"
 viewBox="0.00 0.00 197.00 152.00" xmlns="http://www.w3.org/2000/svg" xmlns:xlink="http://www.w3.org/1999/xlink">
<g id="graph0" class="graph" transform="scale(1 1) rotate(0) translate(4 148)">
<title>test</title>
<polygon fill="white" stroke="white" points="-4,5 -4,-148 194,-148 194,5 -4,5"/>
<!-- node1 -->
<g id="node1" class="node"><title>node1</title>
<ellipse fill="none" stroke="black" cx="47" cy="-117" rx="39.9593" ry="26.7407"/>
<text text-anchor="middle" x="47" y="-120.8" font-family="Times,serif" font-size="14.00">1</text>
<text text-anchor="middle" x="47" y="-105.8" font-family="Times,serif" font-size="14.00">w(1)=7</text>
</g>
<!-- node2 -->
<g id="node2" class="node"><title>node2</title>
<ellipse fill="none" stroke="black" cx="45" cy="-27" rx="44.8843" ry="26.7407"/>
<text text-anchor="middle" x="45" y="-30.8" font-family="Times,serif" font-size="14.00">3</text>
<text text-anchor="middle" x="45" y="-15.8" font-family="Times,serif" font-size="14.00">w(3)=10</text>
</g>
<!-- node1&#45;&#45;node2 -->
<g id="edge1" class="edge"><title>node1&#45;&#45;node2</title>
<path fill="none" stroke="black" d="M46.4108,-90.0731C46.1526,-78.7165 45.8504,-65.4158 45.5919,-54.0457"/>
</g>
<!-- node3 -->
<g id="node3" class="node"><title>node3</title>
<ellipse fill="none" stroke="black" cx="149" cy="-27" rx="39.9593" ry="26.7407"/>
<text text-anchor="middle" x="149" y="-30.8" font-family="Times,serif" font-size="14.00">5</text>
<text text-anchor="middle" x="149" y="-15.8" font-family="Times,serif" font-size="14.00">w(5)=2</text>
</g>
<!-- node1&#45;&#45;node3 -->
<g id="edge2" class="edge"><title>node1&#45;&#45;node3</title>
<path fill="none" stroke="black" d="M70.9145,-95.3679C87.1662,-81.3468 108.587,-62.8659 124.882,-48.8077"/>
</g>
<!-- node4 -->
<g id="node4" class="node"><title>node4</title>
<ellipse fill="none" stroke="black" cx="149" cy="-117" rx="39.9593" ry="26.7407"/>
<text text-anchor="middle" x="149" y="-120.8" font-family="Times,serif" font-size="14.00">4</text>
<text text-anchor="middle" x="149" y="-105.8" font-family="Times,serif" font-size="14.00">w(4)=3</text>
</g>
<!-- node4&#45;&#45;node3 -->
<g id="edge3" class="edge"><title>node4&#45;&#45;node3</title>
<path fill="none" stroke="black" d="M149,-90.0731C149,-78.7165 149,-65.4158 149,-54.0457"/>
</g>
</g>
</svg>
