<?xml version="1.0" encoding="UTF-8" standalone="no"?>
<!DOCTYPE svg PUBLIC "-//W3C//DTD SVG 1.1//EN"
 "http://www.w3.org/Graphics/SVG/1.1/DTD/svg11.dtd">
<!-- Generated by graphviz version 2.30.1 (20150306.0020)
 -->
<!-- Title: test Pages: 1 -->
<svg width="94pt" height="260pt"
 viewBox="0.00 0.00 94.00 260.00" xmlns="http://www.w3.org/2000/svg" xmlns:xlink="http://www.w3.org/1999/xlink">
<g id="graph0" class="graph" transform="scale(1 1) rotate(0) translate(4 256)">
<title>test</title>
<polygon fill="white" stroke="white" points="-4,5 -4,-256 91,-256 91,5 -4,5"/>
<!-- node1 -->
<g id="node1" class="node"><title>node1</title>
<ellipse fill="none" stroke="black" cx="50" cy="-234" rx="18" ry="18"/>
<text text-anchor="middle" x="50" y="-230.3" font-family="Times,serif" font-size="14.00">1</text>
</g>
<!-- node2 -->
<g id="node2" class="node"><title>node2</title>
<ellipse fill="none" stroke="black" cx="18" cy="-162" rx="18" ry="18"/>
<text text-anchor="middle" x="18" y="-158.3" font-family="Times,serif" font-size="14.00">2</text>
</g>
<!-- node1&#45;&gt;node2 -->
<g id="edge1" class="edge"><title>node1&#45;&gt;node2</title>
<path fill="none" stroke="black" d="M42.7387,-217.116C38.811,-208.524 33.8697,-197.715 29.438,-188.021"/>
<polygon fill="black" stroke="black" points="32.5734,-186.461 25.2326,-178.821 26.2071,-189.371 32.5734,-186.461"/>
</g>
<!-- node2&#45;&gt;node2 -->
<g id="edge2" class="edge"><title>node2&#45;&gt;node2</title>
<path fill="none" stroke="black" d="M32.0417,-173.756C42.9126,-178.153 54,-174.234 54,-162 54,-153.589 48.7595,-149.108 41.9516,-148.558"/>
<polygon fill="black" stroke="black" points="41.3132,-145.116 32.0417,-150.244 42.4871,-152.017 41.3132,-145.116"/>
</g>
<!-- node3 -->
<g id="node3" class="node"><title>node3</title>
<ellipse fill="none" stroke="black" cx="18" cy="-90" rx="18" ry="18"/>
<text text-anchor="middle" x="18" y="-86.3" font-family="Times,serif" font-size="14.00">3</text>
</g>
<!-- node2&#45;&gt;node3 -->
<g id="edge3" class="edge"><title>node2&#45;&gt;node3</title>
<path fill="none" stroke="black" d="M18,-143.697C18,-135.983 18,-126.712 18,-118.112"/>
<polygon fill="black" stroke="black" points="21.5001,-118.104 18,-108.104 14.5001,-118.104 21.5001,-118.104"/>
</g>
<!-- node3&#45;&gt;node3 -->
<g id="edge4" class="edge"><title>node3&#45;&gt;node3</title>
<path fill="none" stroke="black" d="M32.0417,-101.756C42.9126,-106.153 54,-102.234 54,-90 54,-81.5889 48.7595,-77.1081 41.9516,-76.5578"/>
<polygon fill="black" stroke="black" points="41.3132,-73.116 32.0417,-78.2435 42.4871,-80.0169 41.3132,-73.116"/>
</g>
<!-- node4 -->
<g id="node4" class="node"><title>node4</title>
<ellipse fill="none" stroke="black" cx="50" cy="-18" rx="18" ry="18"/>
<text text-anchor="middle" x="50" y="-14.3" font-family="Times,serif" font-size="14.00">4</text>
</g>
<!-- node3&#45;&gt;node4 -->
<g id="edge5" class="edge"><title>node3&#45;&gt;node4</title>
<path fill="none" stroke="black" d="M25.2613,-73.1159C29.189,-64.524 34.1303,-53.715 38.562,-44.0207"/>
<polygon fill="black" stroke="black" points="41.7929,-45.3712 42.7674,-34.8212 35.4266,-42.4608 41.7929,-45.3712"/>
</g>
<!-- node4&#45;&gt;node1 -->
<g id="edge6" class="edge"><title>node4&#45;&gt;node1</title>
<path fill="none" stroke="black" d="M55.1393,-35.5195C58.0902,-45.8814 61.4996,-59.5845 63,-72 68.7589,-119.653 68.7589,-132.347 63,-180 61.9333,-188.827 59.9017,-198.304 57.756,-206.769"/>
<polygon fill="black" stroke="black" points="54.3616,-205.914 55.1393,-216.481 61.1205,-207.736 54.3616,-205.914"/>
</g>
<!-- node4&#45;&gt;node4 -->
<g id="edge7" class="edge"><title>node4&#45;&gt;node4</title>
<path fill="none" stroke="black" d="M64.0417,-29.7565C74.9126,-34.1532 86,-30.2344 86,-18 86,-9.58887 80.7595,-5.10813 73.9516,-4.55779"/>
<polygon fill="black" stroke="black" points="73.3132,-1.11604 64.0417,-6.24353 74.4871,-8.01691 73.3132,-1.11604"/>
</g>
</g>
</svg>
