<?xml version="1.0" encoding="UTF-8" standalone="no"?>
<!DOCTYPE svg PUBLIC "-//W3C//DTD SVG 1.1//EN"
 "http://www.w3.org/Graphics/SVG/1.1/DTD/svg11.dtd">
<!-- Generated by graphviz version 2.30.1 (20150306.0020)
 -->
<!-- Title: test Pages: 1 -->
<svg width="94pt" height="404pt"
 viewBox="0.00 0.00 94.00 404.00" xmlns="http://www.w3.org/2000/svg" xmlns:xlink="http://www.w3.org/1999/xlink">
<g id="graph0" class="graph" transform="scale(1 1) rotate(0) translate(4 400)">
<title>test</title>
<polygon fill="white" stroke="white" points="-4,5 -4,-400 91,-400 91,5 -4,5"/>
<!-- node1 -->
<g id="node1" class="node"><title>node1</title>
<ellipse fill="none" stroke="black" cx="50" cy="-378" rx="18" ry="18"/>
<text text-anchor="middle" x="50" y="-374.3" font-family="Times,serif" font-size="14.00">1</text>
</g>
<!-- node1&#45;&gt;node1 -->
<g id="edge1" class="edge"><title>node1&#45;&gt;node1</title>
<path fill="none" stroke="black" d="M64.0417,-389.756C74.9126,-394.153 86,-390.234 86,-378 86,-369.589 80.7595,-365.108 73.9516,-364.558"/>
<polygon fill="black" stroke="black" points="73.3132,-361.116 64.0417,-366.244 74.4871,-368.017 73.3132,-361.116"/>
</g>
<!-- node2 -->
<g id="node2" class="node"><title>node2</title>
<ellipse fill="none" stroke="black" cx="50" cy="-306" rx="18" ry="18"/>
<text text-anchor="middle" x="50" y="-302.3" font-family="Times,serif" font-size="14.00">2</text>
</g>
<!-- node1&#45;&gt;node2 -->
<g id="edge2" class="edge"><title>node1&#45;&gt;node2</title>
<path fill="none" stroke="black" d="M50,-359.697C50,-351.983 50,-342.712 50,-334.112"/>
<polygon fill="black" stroke="black" points="53.5001,-334.104 50,-324.104 46.5001,-334.104 53.5001,-334.104"/>
</g>
<!-- node3 -->
<g id="node3" class="node"><title>node3</title>
<ellipse fill="none" stroke="black" cx="18" cy="-234" rx="18" ry="18"/>
<text text-anchor="middle" x="18" y="-230.3" font-family="Times,serif" font-size="14.00">3</text>
</g>
<!-- node2&#45;&gt;node3 -->
<g id="edge3" class="edge"><title>node2&#45;&gt;node3</title>
<path fill="none" stroke="black" d="M42.7387,-289.116C38.811,-280.524 33.8697,-269.715 29.438,-260.021"/>
<polygon fill="black" stroke="black" points="32.5734,-258.461 25.2326,-250.821 26.2071,-261.371 32.5734,-258.461"/>
</g>
<!-- node3&#45;&gt;node3 -->
<g id="edge4" class="edge"><title>node3&#45;&gt;node3</title>
<path fill="none" stroke="black" d="M32.0417,-245.756C42.9126,-250.153 54,-246.234 54,-234 54,-225.589 48.7595,-221.108 41.9516,-220.558"/>
<polygon fill="black" stroke="black" points="41.3132,-217.116 32.0417,-222.244 42.4871,-224.017 41.3132,-217.116"/>
</g>
<!-- node4 -->
<g id="node4" class="node"><title>node4</title>
<ellipse fill="none" stroke="black" cx="50" cy="-162" rx="18" ry="18"/>
<text text-anchor="middle" x="50" y="-158.3" font-family="Times,serif" font-size="14.00">4</text>
</g>
<!-- node3&#45;&gt;node4 -->
<g id="edge5" class="edge"><title>node3&#45;&gt;node4</title>
<path fill="none" stroke="black" d="M25.2613,-217.116C29.189,-208.524 34.1303,-197.715 38.562,-188.021"/>
<polygon fill="black" stroke="black" points="41.7929,-189.371 42.7674,-178.821 35.4266,-186.461 41.7929,-189.371"/>
</g>
<!-- node4&#45;&gt;node2 -->
<g id="edge6" class="edge"><title>node4&#45;&gt;node2</title>
<path fill="none" stroke="black" d="M55.1393,-179.519C58.0902,-189.881 61.4996,-203.584 63,-216 64.9196,-231.884 64.9196,-236.116 63,-252 61.9333,-260.827 59.9017,-270.304 57.756,-278.769"/>
<polygon fill="black" stroke="black" points="54.3616,-277.914 55.1393,-288.481 61.1205,-279.736 54.3616,-277.914"/>
</g>
<!-- node5 -->
<g id="node5" class="node"><title>node5</title>
<ellipse fill="none" stroke="black" cx="18" cy="-90" rx="18" ry="18"/>
<text text-anchor="middle" x="18" y="-86.3" font-family="Times,serif" font-size="14.00">5</text>
</g>
<!-- node4&#45;&gt;node5 -->
<g id="edge7" class="edge"><title>node4&#45;&gt;node5</title>
<path fill="none" stroke="black" d="M42.7387,-145.116C38.811,-136.524 33.8697,-125.715 29.438,-116.021"/>
<polygon fill="black" stroke="black" points="32.5734,-114.461 25.2326,-106.821 26.2071,-117.371 32.5734,-114.461"/>
</g>
<!-- node5&#45;&gt;node5 -->
<g id="edge8" class="edge"><title>node5&#45;&gt;node5</title>
<path fill="none" stroke="black" d="M32.0417,-101.756C42.9126,-106.153 54,-102.234 54,-90 54,-81.5889 48.7595,-77.1081 41.9516,-76.5578"/>
<polygon fill="black" stroke="black" points="41.3132,-73.116 32.0417,-78.2435 42.4871,-80.0169 41.3132,-73.116"/>
</g>
<!-- node6 -->
<g id="node6" class="node"><title>node6</title>
<ellipse fill="none" stroke="black" cx="50" cy="-18" rx="18" ry="18"/>
<text text-anchor="middle" x="50" y="-14.3" font-family="Times,serif" font-size="14.00">6</text>
</g>
<!-- node5&#45;&gt;node6 -->
<g id="edge9" class="edge"><title>node5&#45;&gt;node6</title>
<path fill="none" stroke="black" d="M25.2613,-73.1159C29.189,-64.524 34.1303,-53.715 38.562,-44.0207"/>
<polygon fill="black" stroke="black" points="41.7929,-45.3712 42.7674,-34.8212 35.4266,-42.4608 41.7929,-45.3712"/>
</g>
<!-- node6&#45;&gt;node4 -->
<g id="edge10" class="edge"><title>node6&#45;&gt;node4</title>
<path fill="none" stroke="black" d="M55.1393,-35.5195C58.0902,-45.8814 61.4996,-59.5845 63,-72 64.9196,-87.8844 64.9196,-92.1156 63,-108 61.9333,-116.827 59.9017,-126.304 57.756,-134.769"/>
<polygon fill="black" stroke="black" points="54.3616,-133.914 55.1393,-144.481 61.1205,-135.736 54.3616,-133.914"/>
</g>
<!-- node6&#45;&gt;node6 -->
<g id="edge11" class="edge"><title>node6&#45;&gt;node6</title>
<path fill="none" stroke="black" d="M64.0417,-29.7565C74.9126,-34.1532 86,-30.2344 86,-18 86,-9.58887 80.7595,-5.10813 73.9516,-4.55779"/>
<polygon fill="black" stroke="black" points="73.3132,-1.11604 64.0417,-6.24353 74.4871,-8.01691 73.3132,-1.11604"/>
</g>
</g>
</svg>
